M48
; DRILL file {KiCad 7.0.10} date Tue Feb 11 17:38:38 2025
; FORMAT={-:-/ absolute / metric / decimal}
; #@! TF.CreationDate,2025-02-11T17:38:38+01:00
; #@! TF.GenerationSoftware,Kicad,Pcbnew,7.0.10
; #@! TF.FileFunction,Plated,1,2,PTH
FMAT,2
METRIC
; #@! TA.AperFunction,Plated,PTH,ViaDrill
T1C0.400
; #@! TA.AperFunction,Plated,PTH,ComponentDrill
T2C0.750
; #@! TA.AperFunction,Plated,PTH,ComponentDrill
T3C0.800
; #@! TA.AperFunction,Plated,PTH,ComponentDrill
T4C0.950
; #@! TA.AperFunction,Plated,PTH,ComponentDrill
T5C1.000
; #@! TA.AperFunction,Plated,PTH,ComponentDrill
T6C1.200
; #@! TA.AperFunction,Plated,PTH,ComponentDrill
T7C3.200
%
G90
G05
T1
X106.2Y-220.2
X107.3Y-174.6
X112.4Y-196.5
X135.9Y-212.9
X139.9Y-177.8
X140.0Y-190.3
X143.25Y-189.65
X145.3Y-213.0
X146.0Y-140.2
X149.4Y-186.2
X151.3Y-182.0
X151.6Y-246.2
X153.7Y-147.4
X157.0Y-218.2
X160.2Y-222.2
X160.4Y-171.9
X163.2Y-183.9
X169.0Y-262.0
X170.3Y-128.4
X172.5Y-149.7
X176.6Y-185.3
X186.1Y-171.3
X187.6Y-222.2
X193.1Y-138.7
X196.9Y-265.2
X200.1Y-165.3
X200.9Y-224.6
X204.5Y-268.7
X207.6Y-263.9
X210.35Y-178.45
X212.8Y-184.575
X216.4Y-227.5
X218.8Y-194.2
X221.9Y-240.4
X230.8Y-219.1
X231.3Y-268.9
X240.4Y-136.7
X241.3Y-217.1
X246.4Y-145.8
X247.8Y-193.8
X250.0Y-192.0
X251.2Y-133.4
X257.2Y-138.8
X257.2Y-234.9
X257.2Y-244.8
X259.1Y-195.5
X262.8Y-201.4
X264.0Y-148.0
X264.2Y-261.5
X271.3Y-202.1
X273.8Y-192.5
X277.6Y-192.1
X278.6Y-150.9
X278.8Y-187.5
X279.6Y-190.4
X282.0Y-188.4
X282.6Y-220.7
X282.7Y-210.7
X283.0Y-132.3
X284.4Y-187.7
X284.5Y-267.8
X284.8Y-183.7
X284.8Y-207.6
X285.1Y-186.6
X285.4Y-204.1
X286.5Y-202.8
X286.9Y-200.6
X287.1Y-181.9
X287.9Y-259.8
X288.0Y-263.9
X288.7Y-222.1
X289.0Y-140.1
X289.05Y-184.15
X289.9Y-245.8
X291.6Y-185.3
X295.47Y-158.44
X297.0Y-220.8
X298.4Y-258.5
X298.5Y-156.4
X298.6Y-131.9
X299.1Y-129.4
X299.1Y-216.0
X300.9Y-225.8
X301.6Y-253.487
X303.6Y-212.6
X304.1Y-247.0
X304.9Y-129.2
X305.025Y-257.9
X305.7Y-123.7
X308.0Y-162.1
X308.06Y-214.3
X309.0Y-253.5
X310.0Y-257.9
X311.7Y-249.6
X312.5Y-188.15
X313.7Y-190.625
X314.6Y-188.625
X315.337Y-190.637
X315.4Y-192.625
X315.7Y-256.0
X316.0Y-220.0
X316.2Y-188.1
X316.2Y-189.5
X319.3Y-205.8
X319.3Y-214.6
X321.1Y-184.8
X323.6Y-150.9
X333.7Y-188.9
X338.1Y-202.9
X338.8Y-139.5
X339.1Y-129.5
X340.0Y-247.7
X340.4Y-183.9
X340.7Y-179.2
X343.2Y-129.3
X343.4Y-225.4
X345.4Y-189.2
X347.2Y-247.2
X351.4Y-191.0
X354.9Y-183.0
X355.1Y-185.475
X356.3Y-192.4
X359.922Y-176.577
X361.0Y-182.5
X365.6Y-265.0
X366.5Y-201.2
X366.8Y-222.0
X367.3Y-148.5
X369.9Y-186.2
X373.8Y-182.5
X381.6Y-202.2
X381.8Y-139.2
X382.5Y-267.7
X384.3Y-246.475
X387.0Y-162.8
X390.4Y-123.7
X390.7Y-228.2
X391.4Y-217.7
X395.2Y-165.3
X401.1Y-227.7
X404.2Y-222.8
X416.1Y-248.0
X424.7Y-184.6
X432.0Y-222.6
X433.9Y-171.1
X440.8Y-147.5
X444.9Y-268.7
X446.8Y-219.63
X448.4Y-270.1
X450.9Y-173.4
X461.5Y-185.9
X462.4Y-216.7
X467.3Y-207.0
X483.0Y-188.9
X483.1Y-232.5
X484.3Y-171.0
X485.9Y-180.6
T2
X110.53Y-223.16
X111.8Y-223.16
X113.07Y-223.16
X113.96Y-170.3
X115.23Y-170.3
X116.5Y-170.3
X137.43Y-181.44
X138.64Y-212.33
X138.64Y-213.6
X138.64Y-214.87
X138.7Y-181.44
X139.97Y-181.44
X156.73Y-176.76
X158.0Y-176.76
X159.27Y-176.76
X160.63Y-219.46
X161.9Y-219.46
X163.17Y-219.46
X190.0Y-166.63
X190.0Y-167.9
X190.0Y-169.17
X191.9Y-222.96
X191.9Y-224.23
X191.9Y-225.5
X206.86Y-168.2
X208.13Y-168.2
X209.4Y-168.2
X214.73Y-221.74
X216.0Y-221.74
X217.27Y-221.74
X239.63Y-213.14
X240.9Y-213.14
X242.17Y-213.14
X243.03Y-176.04
X244.3Y-176.04
X245.57Y-176.04
X253.73Y-176.16
X253.83Y-226.76
X255.0Y-176.16
X255.1Y-226.76
X256.27Y-176.16
X256.37Y-226.76
X287.76Y-162.9
X289.03Y-162.9
X290.3Y-162.9
X292.3Y-222.16
X292.3Y-223.43
X292.3Y-224.7
X306.26Y-158.1
X307.53Y-158.1
X308.8Y-158.1
X316.0Y-222.46
X316.0Y-223.73
X316.0Y-225.0
X338.9Y-175.2
X340.17Y-175.2
X341.44Y-175.2
X342.2Y-221.4
X343.47Y-221.4
X344.74Y-221.4
X356.0Y-173.7
X357.27Y-173.7
X358.54Y-173.7
X367.56Y-217.6
X368.83Y-217.6
X370.1Y-217.6
X386.23Y-167.24
X387.5Y-167.24
X388.1Y-231.0
X388.77Y-167.24
X389.37Y-231.0
X390.64Y-231.0
X406.5Y-165.23
X406.5Y-166.5
X406.5Y-167.77
X407.8Y-222.66
X407.8Y-223.93
X407.8Y-225.2
X435.36Y-222.1
X436.63Y-222.1
X437.9Y-222.1
X440.96Y-173.4
X442.23Y-173.4
X443.5Y-173.4
X455.63Y-175.4
X455.64Y-219.63
X455.64Y-220.9
X455.64Y-222.17
X456.9Y-175.4
X458.17Y-175.4
X480.66Y-235.2
X481.93Y-235.2
X483.2Y-235.2
X484.1Y-165.2
X485.37Y-165.2
X486.64Y-165.2
T3
X143.82Y-143.0
X143.82Y-250.0
X148.9Y-143.0
X148.9Y-250.0
X153.98Y-143.0
X153.98Y-250.0
X159.06Y-143.0
X159.06Y-250.0
X165.14Y-143.0
X165.14Y-250.0
X238.8Y-143.0
X238.8Y-250.0
X243.88Y-143.0
X243.88Y-250.0
X248.96Y-143.0
X248.96Y-250.0
X254.04Y-143.0
X254.04Y-250.0
X260.12Y-143.0
X260.12Y-250.0
X338.8Y-143.0
X338.8Y-250.0
X343.88Y-143.0
X343.88Y-250.0
X348.96Y-143.0
X348.96Y-250.0
X354.04Y-143.0
X354.04Y-250.0
X360.12Y-143.0
X360.12Y-250.0
X433.8Y-143.0
X433.8Y-250.0
X438.88Y-143.0
X438.88Y-250.0
X443.96Y-143.0
X443.96Y-250.0
X449.04Y-143.0
X449.04Y-250.0
X455.12Y-143.0
X455.12Y-250.0
T4
X294.8Y-265.0
X297.3Y-265.0
X299.8Y-265.0
X302.3Y-265.0
T5
X296.7Y-126.0
X299.2Y-126.0
X305.4Y-216.96
X305.4Y-219.5
X305.4Y-222.04
T6
X118.4Y-143.18
X118.4Y-158.42
X123.7Y-234.78
X123.7Y-250.02
X139.0Y-224.38
X139.0Y-239.62
X139.7Y-155.68
X139.7Y-170.92
X168.5Y-150.48
X168.5Y-165.72
X169.6Y-224.18
X169.6Y-239.42
X187.6Y-142.68
X187.6Y-157.92
X191.8Y-234.98
X191.8Y-250.22
X215.9Y-235.48
X215.9Y-250.72
X216.3Y-143.98
X216.3Y-159.22
X234.8Y-225.08
X234.8Y-240.32
X236.3Y-153.48
X236.3Y-168.72
X262.3Y-153.58
X262.3Y-168.82
X263.9Y-226.18
X263.9Y-241.42
X284.5Y-234.38
X284.5Y-249.62
X284.8Y-143.08
X284.8Y-158.32
X315.9Y-234.78
X315.9Y-250.02
X316.4Y-142.88
X316.4Y-158.12
X330.8Y-155.18
X330.8Y-170.42
X332.9Y-221.5
X332.9Y-236.74
X363.2Y-150.98
X363.2Y-166.22
X363.5Y-227.18
X363.5Y-242.42
X378.5Y-143.08
X378.5Y-158.32
X379.2Y-234.48
X379.2Y-249.72
X407.7Y-234.28
X407.7Y-249.52
X416.0Y-143.28
X416.0Y-158.52
X427.1Y-224.88
X427.1Y-240.12
X432.1Y-150.68
X432.1Y-165.92
X453.6Y-151.88
X453.6Y-167.12
X455.9Y-228.98
X455.9Y-244.22
X470.6Y-234.98
X470.6Y-250.22
X476.3Y-142.48
X476.3Y-157.72
T7
X109.0Y-131.5
X109.0Y-261.5
X489.0Y-131.5
X490.0Y-261.5
M30
