%TF.GenerationSoftware,KiCad,Pcbnew,7.0.10*%
%TF.CreationDate,2025-02-11T17:38:30+01:00*%
%TF.ProjectId,Afficheur7seg,41666669-6368-4657-9572-377365672e6b,rev?*%
%TF.SameCoordinates,Original*%
%TF.FileFunction,Soldermask,Top*%
%TF.FilePolarity,Negative*%
%FSLAX46Y46*%
G04 Gerber Fmt 4.6, Leading zero omitted, Abs format (unit mm)*
G04 Created by KiCad (PCBNEW 7.0.10) date 2025-02-11 17:38:30*
%MOMM*%
%LPD*%
G01*
G04 APERTURE LIST*
G04 Aperture macros list*
%AMRoundRect*
0 Rectangle with rounded corners*
0 $1 Rounding radius*
0 $2 $3 $4 $5 $6 $7 $8 $9 X,Y pos of 4 corners*
0 Add a 4 corners polygon primitive as box body*
4,1,4,$2,$3,$4,$5,$6,$7,$8,$9,$2,$3,0*
0 Add four circle primitives for the rounded corners*
1,1,$1+$1,$2,$3*
1,1,$1+$1,$4,$5*
1,1,$1+$1,$6,$7*
1,1,$1+$1,$8,$9*
0 Add four rect primitives between the rounded corners*
20,1,$1+$1,$2,$3,$4,$5,0*
20,1,$1+$1,$4,$5,$6,$7,0*
20,1,$1+$1,$6,$7,$8,$9,0*
20,1,$1+$1,$8,$9,$2,$3,0*%
G04 Aperture macros list end*
%ADD10C,1.524000*%
%ADD11C,2.400000*%
%ADD12O,2.400000X2.400000*%
%ADD13RoundRect,0.237500X-0.237500X0.300000X-0.237500X-0.300000X0.237500X-0.300000X0.237500X0.300000X0*%
%ADD14R,1.050000X1.500000*%
%ADD15O,1.050000X1.500000*%
%ADD16RoundRect,0.250000X0.450000X-0.262500X0.450000X0.262500X-0.450000X0.262500X-0.450000X-0.262500X0*%
%ADD17C,5.600000*%
%ADD18RoundRect,0.250000X0.262500X0.450000X-0.262500X0.450000X-0.262500X-0.450000X0.262500X-0.450000X0*%
%ADD19RoundRect,0.250000X-0.262500X-0.450000X0.262500X-0.450000X0.262500X0.450000X-0.262500X0.450000X0*%
%ADD20R,1.500000X1.050000*%
%ADD21O,1.500000X1.050000*%
%ADD22RoundRect,0.250000X-0.600000X-0.725000X0.600000X-0.725000X0.600000X0.725000X-0.600000X0.725000X0*%
%ADD23O,1.700000X1.950000*%
%ADD24RoundRect,0.075000X-0.662500X-0.075000X0.662500X-0.075000X0.662500X0.075000X-0.662500X0.075000X0*%
%ADD25RoundRect,0.250000X-0.450000X0.262500X-0.450000X-0.262500X0.450000X-0.262500X0.450000X0.262500X0*%
%ADD26RoundRect,0.250000X0.600000X0.750000X-0.600000X0.750000X-0.600000X-0.750000X0.600000X-0.750000X0*%
%ADD27O,1.700000X2.000000*%
%ADD28R,1.700000X1.700000*%
%ADD29O,1.700000X1.700000*%
G04 APERTURE END LIST*
D10*
%TO.C,Afficheur3*%
X248960000Y-250000000D03*
X248960000Y-143000000D03*
X243880000Y-143000000D03*
X238800000Y-143000000D03*
X243880000Y-250000000D03*
X254040000Y-250000000D03*
X238800000Y-250000000D03*
X260120000Y-250000000D03*
X254040000Y-143000000D03*
X260120000Y-143000000D03*
%TD*%
D11*
%TO.C,R39*%
X262300000Y-153580000D03*
D12*
X262300000Y-168820000D03*
%TD*%
D13*
%TO.C,C1*%
X295800000Y-253100000D03*
X295800000Y-254825000D03*
%TD*%
D11*
%TO.C,R32*%
X123700000Y-250020000D03*
D12*
X123700000Y-234780000D03*
%TD*%
D14*
%TO.C,Q22*%
X290300000Y-162900000D03*
D15*
X289030000Y-162900000D03*
X287760000Y-162900000D03*
%TD*%
D11*
%TO.C,R48*%
X215900000Y-250720000D03*
D12*
X215900000Y-235480000D03*
%TD*%
D16*
%TO.C,R52*%
X476800000Y-207825000D03*
X476800000Y-206000000D03*
%TD*%
D17*
%TO.C,H4*%
X490000000Y-261500000D03*
%TD*%
D11*
%TO.C,R57*%
X453600000Y-151880000D03*
D12*
X453600000Y-167120000D03*
%TD*%
D18*
%TO.C,R1*%
X338525000Y-185100000D03*
X336700000Y-185100000D03*
%TD*%
D11*
%TO.C,R44*%
X284800000Y-143080000D03*
D12*
X284800000Y-158320000D03*
%TD*%
D18*
%TO.C,R56*%
X467600000Y-184500000D03*
X465775000Y-184500000D03*
%TD*%
%TO.C,R64*%
X400012500Y-223900000D03*
X398187500Y-223900000D03*
%TD*%
D14*
%TO.C,Q5*%
X344740000Y-221400000D03*
D15*
X343470000Y-221400000D03*
X342200000Y-221400000D03*
%TD*%
D18*
%TO.C,R55*%
X397312500Y-159600000D03*
X395487500Y-159600000D03*
%TD*%
D14*
%TO.C,Q6*%
X388770000Y-167240000D03*
D15*
X387500000Y-167240000D03*
X386230000Y-167240000D03*
%TD*%
D17*
%TO.C,H2*%
X489000000Y-131500000D03*
%TD*%
D14*
%TO.C,Q19*%
X206860000Y-168200000D03*
D15*
X208130000Y-168200000D03*
X209400000Y-168200000D03*
%TD*%
D18*
%TO.C,R2*%
X388200000Y-205400000D03*
X386375000Y-205400000D03*
%TD*%
D14*
%TO.C,Q9*%
X139970000Y-181440000D03*
D15*
X138700000Y-181440000D03*
X137430000Y-181440000D03*
%TD*%
D14*
%TO.C,Q4*%
X356000000Y-173700000D03*
D15*
X357270000Y-173700000D03*
X358540000Y-173700000D03*
%TD*%
D11*
%TO.C,R54*%
X470600000Y-250220000D03*
D12*
X470600000Y-234980000D03*
%TD*%
D19*
%TO.C,R18*%
X201575000Y-233200000D03*
X203400000Y-233200000D03*
%TD*%
D11*
%TO.C,R35*%
X236300000Y-153480000D03*
D12*
X236300000Y-168720000D03*
%TD*%
D20*
%TO.C,Q27*%
X406500000Y-167770000D03*
D21*
X406500000Y-166500000D03*
X406500000Y-165230000D03*
%TD*%
D22*
%TO.C,J1*%
X294800000Y-265000000D03*
D23*
X297300000Y-265000000D03*
X299800000Y-265000000D03*
X302300000Y-265000000D03*
%TD*%
D19*
%TO.C,R22*%
X158105000Y-185060000D03*
X159930000Y-185060000D03*
%TD*%
D11*
%TO.C,R28*%
X187600000Y-142680000D03*
D12*
X187600000Y-157920000D03*
%TD*%
D11*
%TO.C,R36*%
X284500000Y-249620000D03*
D12*
X284500000Y-234380000D03*
%TD*%
D16*
%TO.C,R41*%
X243200000Y-202025000D03*
X243200000Y-200200000D03*
%TD*%
D14*
%TO.C,Q21*%
X242170000Y-213140000D03*
D15*
X240900000Y-213140000D03*
X239630000Y-213140000D03*
%TD*%
D24*
%TO.C,J3*%
X293937500Y-183350000D03*
X293937500Y-183850000D03*
X293937500Y-184350000D03*
X293937500Y-184850000D03*
X293937500Y-185350000D03*
X293937500Y-185850000D03*
X293937500Y-186350000D03*
X293937500Y-186850000D03*
X293937500Y-187350000D03*
X293937500Y-187850000D03*
X293937500Y-188350000D03*
X293937500Y-188850000D03*
X293937500Y-189350000D03*
X293937500Y-189850000D03*
X293937500Y-190350000D03*
X293937500Y-190850000D03*
X293937500Y-191350000D03*
X293937500Y-191850000D03*
X293937500Y-192350000D03*
X293937500Y-192850000D03*
X293937500Y-193350000D03*
X293937500Y-193850000D03*
X293937500Y-194350000D03*
X293937500Y-194850000D03*
X293937500Y-195350000D03*
X293937500Y-195850000D03*
X293937500Y-196350000D03*
X293937500Y-196850000D03*
X303262500Y-196850000D03*
X303262500Y-196350000D03*
X303262500Y-195850000D03*
X303262500Y-195350000D03*
X303262500Y-194850000D03*
X303262500Y-194350000D03*
X303262500Y-193850000D03*
X303262500Y-193350000D03*
X303262500Y-192850000D03*
X303262500Y-192350000D03*
X303262500Y-191850000D03*
X303262500Y-191350000D03*
X303262500Y-190850000D03*
X303262500Y-190350000D03*
X303262500Y-189850000D03*
X303262500Y-189350000D03*
X303262500Y-188850000D03*
X303262500Y-188350000D03*
X303262500Y-187850000D03*
X303262500Y-187350000D03*
X303262500Y-186850000D03*
X303262500Y-186350000D03*
X303262500Y-185850000D03*
X303262500Y-185350000D03*
X303262500Y-184850000D03*
X303262500Y-184350000D03*
X303262500Y-183850000D03*
X303262500Y-183350000D03*
%TD*%
D11*
%TO.C,R47*%
X263900000Y-241420000D03*
D12*
X263900000Y-226180000D03*
%TD*%
D16*
%TO.C,R9*%
X342100000Y-205112500D03*
X342100000Y-203287500D03*
%TD*%
D11*
%TO.C,R53*%
X432100000Y-150680000D03*
D12*
X432100000Y-165920000D03*
%TD*%
D11*
%TO.C,R8*%
X316400000Y-142880000D03*
D12*
X316400000Y-158120000D03*
%TD*%
D14*
%TO.C,Q29*%
X437900000Y-222100000D03*
D15*
X436630000Y-222100000D03*
X435360000Y-222100000D03*
%TD*%
D14*
%TO.C,Q15*%
X160630000Y-219460000D03*
D15*
X161900000Y-219460000D03*
X163170000Y-219460000D03*
%TD*%
D11*
%TO.C,R40*%
X216300000Y-143980000D03*
D12*
X216300000Y-159220000D03*
%TD*%
D11*
%TO.C,R4*%
X379200000Y-249720000D03*
D12*
X379200000Y-234480000D03*
%TD*%
D19*
%TO.C,R30*%
X111875000Y-207600000D03*
X113700000Y-207600000D03*
%TD*%
D14*
%TO.C,Q23*%
X253830000Y-226760000D03*
D15*
X255100000Y-226760000D03*
X256370000Y-226760000D03*
%TD*%
D18*
%TO.C,R10*%
X387525000Y-193800000D03*
X385700000Y-193800000D03*
%TD*%
D14*
%TO.C,Q11*%
X113960000Y-170300000D03*
D15*
X115230000Y-170300000D03*
X116500000Y-170300000D03*
%TD*%
D14*
%TO.C,Q26*%
X483200000Y-235200000D03*
D15*
X481930000Y-235200000D03*
X480660000Y-235200000D03*
%TD*%
D14*
%TO.C,Q28*%
X455630000Y-175400000D03*
D15*
X456900000Y-175400000D03*
X458170000Y-175400000D03*
%TD*%
D16*
%TO.C,R45*%
X255500000Y-207725000D03*
X255500000Y-205900000D03*
%TD*%
D14*
%TO.C,Q30*%
X486640000Y-165200000D03*
D15*
X485370000Y-165200000D03*
X484100000Y-165200000D03*
%TD*%
D11*
%TO.C,R11*%
X332900000Y-236740000D03*
D12*
X332900000Y-221500000D03*
%TD*%
D11*
%TO.C,R3*%
X330800000Y-155180000D03*
D12*
X330800000Y-170420000D03*
%TD*%
D19*
%TO.C,R17*%
X130275000Y-194900000D03*
X132100000Y-194900000D03*
%TD*%
D16*
%TO.C,R14*%
X319300000Y-202212500D03*
X319300000Y-200387500D03*
%TD*%
D14*
%TO.C,Q16*%
X110530000Y-223160000D03*
D15*
X111800000Y-223160000D03*
X113070000Y-223160000D03*
%TD*%
D11*
%TO.C,R66*%
X407700000Y-249520000D03*
D12*
X407700000Y-234280000D03*
%TD*%
D18*
%TO.C,R49*%
X311900000Y-259900000D03*
X310075000Y-259900000D03*
%TD*%
D11*
%TO.C,R31*%
X169600000Y-239420000D03*
D12*
X169600000Y-224180000D03*
%TD*%
D25*
%TO.C,R5*%
X321700000Y-186700000D03*
X321700000Y-188525000D03*
%TD*%
D14*
%TO.C,Q1*%
X341440000Y-175200000D03*
D15*
X340170000Y-175200000D03*
X338900000Y-175200000D03*
%TD*%
D20*
%TO.C,Q8*%
X316000000Y-222460000D03*
D21*
X316000000Y-223730000D03*
X316000000Y-225000000D03*
%TD*%
D19*
%TO.C,R38*%
X259875000Y-188700000D03*
X261700000Y-188700000D03*
%TD*%
D20*
%TO.C,Q31*%
X455640000Y-219630000D03*
D21*
X455640000Y-220900000D03*
X455640000Y-222170000D03*
%TD*%
D20*
%TO.C,Q10*%
X191900000Y-222960000D03*
D21*
X191900000Y-224230000D03*
X191900000Y-225500000D03*
%TD*%
D14*
%TO.C,Q24*%
X217270000Y-221740000D03*
D15*
X216000000Y-221740000D03*
X214730000Y-221740000D03*
%TD*%
D25*
%TO.C,R42*%
X281100000Y-177175000D03*
X281100000Y-179000000D03*
%TD*%
D19*
%TO.C,R29*%
X164275000Y-209100000D03*
X166100000Y-209100000D03*
%TD*%
D11*
%TO.C,R12*%
X378500000Y-143080000D03*
D12*
X378500000Y-158320000D03*
%TD*%
D18*
%TO.C,R60*%
X487900000Y-190300000D03*
X486075000Y-190300000D03*
%TD*%
D20*
%TO.C,Q18*%
X292300000Y-222160000D03*
D21*
X292300000Y-223430000D03*
X292300000Y-224700000D03*
%TD*%
D11*
%TO.C,R15*%
X363500000Y-242420000D03*
D12*
X363500000Y-227180000D03*
%TD*%
D26*
%TO.C,J2*%
X299200000Y-126000000D03*
D27*
X296700000Y-126000000D03*
%TD*%
D11*
%TO.C,R7*%
X363200000Y-150980000D03*
D12*
X363200000Y-166220000D03*
%TD*%
D14*
%TO.C,Q2*%
X390640000Y-231000000D03*
D15*
X389370000Y-231000000D03*
X388100000Y-231000000D03*
%TD*%
D16*
%TO.C,R50*%
X305012500Y-255312500D03*
X305012500Y-253487500D03*
%TD*%
D14*
%TO.C,Q3*%
X306260000Y-158100000D03*
D15*
X307530000Y-158100000D03*
X308800000Y-158100000D03*
%TD*%
D28*
%TO.C,JP1*%
X305400000Y-222040000D03*
D29*
X305400000Y-219500000D03*
X305400000Y-216960000D03*
%TD*%
D18*
%TO.C,R6*%
X359112500Y-182900000D03*
X357287500Y-182900000D03*
%TD*%
D19*
%TO.C,R26*%
X198375000Y-161000000D03*
X200200000Y-161000000D03*
%TD*%
D18*
%TO.C,R51*%
X442312500Y-179800000D03*
X440487500Y-179800000D03*
%TD*%
D11*
%TO.C,R20*%
X191800000Y-250220000D03*
D12*
X191800000Y-234980000D03*
%TD*%
D14*
%TO.C,Q17*%
X245570000Y-176040000D03*
D15*
X244300000Y-176040000D03*
X243030000Y-176040000D03*
%TD*%
D14*
%TO.C,Q7*%
X367560000Y-217600000D03*
D15*
X368830000Y-217600000D03*
X370100000Y-217600000D03*
%TD*%
D14*
%TO.C,Q20*%
X253730000Y-176160000D03*
D15*
X255000000Y-176160000D03*
X256270000Y-176160000D03*
%TD*%
D19*
%TO.C,R25*%
X145675000Y-218300000D03*
X147500000Y-218300000D03*
%TD*%
D11*
%TO.C,R62*%
X476300000Y-142480000D03*
D12*
X476300000Y-157720000D03*
%TD*%
D11*
%TO.C,R23*%
X168500000Y-150480000D03*
D12*
X168500000Y-165720000D03*
%TD*%
D17*
%TO.C,H1*%
X109000000Y-131500000D03*
%TD*%
D11*
%TO.C,R58*%
X416000000Y-143280000D03*
D12*
X416000000Y-158520000D03*
%TD*%
D14*
%TO.C,Q12*%
X156730000Y-176760000D03*
D15*
X158000000Y-176760000D03*
X159270000Y-176760000D03*
%TD*%
D19*
%TO.C,R33*%
X243575000Y-192000000D03*
X245400000Y-192000000D03*
%TD*%
D20*
%TO.C,Q32*%
X407800000Y-222660000D03*
D21*
X407800000Y-223930000D03*
X407800000Y-225200000D03*
%TD*%
D16*
%TO.C,R59*%
X437100000Y-214000000D03*
X437100000Y-212175000D03*
%TD*%
D11*
%TO.C,R16*%
X315900000Y-250020000D03*
D12*
X315900000Y-234780000D03*
%TD*%
D20*
%TO.C,Q13*%
X138640000Y-212330000D03*
D21*
X138640000Y-213600000D03*
X138640000Y-214870000D03*
%TD*%
D16*
%TO.C,R34*%
X282600000Y-203300000D03*
X282600000Y-201475000D03*
%TD*%
D11*
%TO.C,R61*%
X427100000Y-240120000D03*
D12*
X427100000Y-224880000D03*
%TD*%
D11*
%TO.C,R27*%
X139000000Y-239620000D03*
D12*
X139000000Y-224380000D03*
%TD*%
D19*
%TO.C,R46*%
X215975000Y-196800000D03*
X217800000Y-196800000D03*
%TD*%
D20*
%TO.C,Q14*%
X190000000Y-169170000D03*
D21*
X190000000Y-167900000D03*
X190000000Y-166630000D03*
%TD*%
D16*
%TO.C,R13*%
X374000000Y-208712500D03*
X374000000Y-206887500D03*
%TD*%
D11*
%TO.C,R43*%
X234800000Y-240320000D03*
D12*
X234800000Y-225080000D03*
%TD*%
D11*
%TO.C,R19*%
X139700000Y-155680000D03*
D12*
X139700000Y-170920000D03*
%TD*%
D16*
%TO.C,R63*%
X467900000Y-214525000D03*
X467900000Y-212700000D03*
%TD*%
D19*
%TO.C,R37*%
X215887500Y-189300000D03*
X217712500Y-189300000D03*
%TD*%
D11*
%TO.C,R65*%
X455900000Y-244220000D03*
D12*
X455900000Y-228980000D03*
%TD*%
D17*
%TO.C,H3*%
X109000000Y-261500000D03*
%TD*%
D14*
%TO.C,Q25*%
X443500000Y-173400000D03*
D15*
X442230000Y-173400000D03*
X440960000Y-173400000D03*
%TD*%
D11*
%TO.C,R24*%
X118400000Y-143180000D03*
D12*
X118400000Y-158420000D03*
%TD*%
D19*
%TO.C,R21*%
X109275000Y-201000000D03*
X111100000Y-201000000D03*
%TD*%
D10*
%TO.C,Afficheur2*%
X348960000Y-250000000D03*
X348960000Y-143000000D03*
X343880000Y-143000000D03*
X338800000Y-143000000D03*
X343880000Y-250000000D03*
X354040000Y-250000000D03*
X338800000Y-250000000D03*
X360120000Y-250000000D03*
X354040000Y-143000000D03*
X360120000Y-143000000D03*
%TD*%
%TO.C,Afficheur4*%
X153980000Y-250000000D03*
X153980000Y-143000000D03*
X148900000Y-143000000D03*
X143820000Y-143000000D03*
X148900000Y-250000000D03*
X159060000Y-250000000D03*
X143820000Y-250000000D03*
X165140000Y-250000000D03*
X159060000Y-143000000D03*
X165140000Y-143000000D03*
%TD*%
%TO.C,Afficheur1*%
X443960000Y-250000000D03*
X443960000Y-143000000D03*
X438880000Y-143000000D03*
X433800000Y-143000000D03*
X438880000Y-250000000D03*
X449040000Y-250000000D03*
X433800000Y-250000000D03*
X455120000Y-250000000D03*
X449040000Y-143000000D03*
X455120000Y-143000000D03*
%TD*%
M02*
