%TF.GenerationSoftware,KiCad,Pcbnew,7.0.10*%
%TF.CreationDate,2025-02-11T17:38:30+01:00*%
%TF.ProjectId,Afficheur7seg,41666669-6368-4657-9572-377365672e6b,rev?*%
%TF.SameCoordinates,Original*%
%TF.FileFunction,Legend,Bot*%
%TF.FilePolarity,Positive*%
%FSLAX46Y46*%
G04 Gerber Fmt 4.6, Leading zero omitted, Abs format (unit mm)*
G04 Created by KiCad (PCBNEW 7.0.10) date 2025-02-11 17:38:30*
%MOMM*%
%LPD*%
G01*
G04 APERTURE LIST*
%ADD10C,0.100000*%
G04 APERTURE END LIST*
D10*
X252555238Y-131171704D02*
X252079048Y-131171704D01*
X252650476Y-131457419D02*
X252317143Y-130457419D01*
X252317143Y-130457419D02*
X251983810Y-131457419D01*
X251793333Y-130790752D02*
X251412381Y-130790752D01*
X251650476Y-131457419D02*
X251650476Y-130600276D01*
X251650476Y-130600276D02*
X251602857Y-130505038D01*
X251602857Y-130505038D02*
X251507619Y-130457419D01*
X251507619Y-130457419D02*
X251412381Y-130457419D01*
X251221904Y-130790752D02*
X250840952Y-130790752D01*
X251079047Y-131457419D02*
X251079047Y-130600276D01*
X251079047Y-130600276D02*
X251031428Y-130505038D01*
X251031428Y-130505038D02*
X250936190Y-130457419D01*
X250936190Y-130457419D02*
X250840952Y-130457419D01*
X250507618Y-131457419D02*
X250507618Y-130790752D01*
X250507618Y-130457419D02*
X250555237Y-130505038D01*
X250555237Y-130505038D02*
X250507618Y-130552657D01*
X250507618Y-130552657D02*
X250459999Y-130505038D01*
X250459999Y-130505038D02*
X250507618Y-130457419D01*
X250507618Y-130457419D02*
X250507618Y-130552657D01*
X249602857Y-131409800D02*
X249698095Y-131457419D01*
X249698095Y-131457419D02*
X249888571Y-131457419D01*
X249888571Y-131457419D02*
X249983809Y-131409800D01*
X249983809Y-131409800D02*
X250031428Y-131362180D01*
X250031428Y-131362180D02*
X250079047Y-131266942D01*
X250079047Y-131266942D02*
X250079047Y-130981228D01*
X250079047Y-130981228D02*
X250031428Y-130885990D01*
X250031428Y-130885990D02*
X249983809Y-130838371D01*
X249983809Y-130838371D02*
X249888571Y-130790752D01*
X249888571Y-130790752D02*
X249698095Y-130790752D01*
X249698095Y-130790752D02*
X249602857Y-130838371D01*
X249174285Y-131457419D02*
X249174285Y-130457419D01*
X248745714Y-131457419D02*
X248745714Y-130933609D01*
X248745714Y-130933609D02*
X248793333Y-130838371D01*
X248793333Y-130838371D02*
X248888571Y-130790752D01*
X248888571Y-130790752D02*
X249031428Y-130790752D01*
X249031428Y-130790752D02*
X249126666Y-130838371D01*
X249126666Y-130838371D02*
X249174285Y-130885990D01*
X247888571Y-131409800D02*
X247983809Y-131457419D01*
X247983809Y-131457419D02*
X248174285Y-131457419D01*
X248174285Y-131457419D02*
X248269523Y-131409800D01*
X248269523Y-131409800D02*
X248317142Y-131314561D01*
X248317142Y-131314561D02*
X248317142Y-130933609D01*
X248317142Y-130933609D02*
X248269523Y-130838371D01*
X248269523Y-130838371D02*
X248174285Y-130790752D01*
X248174285Y-130790752D02*
X247983809Y-130790752D01*
X247983809Y-130790752D02*
X247888571Y-130838371D01*
X247888571Y-130838371D02*
X247840952Y-130933609D01*
X247840952Y-130933609D02*
X247840952Y-131028847D01*
X247840952Y-131028847D02*
X248317142Y-131124085D01*
X246983809Y-130790752D02*
X246983809Y-131457419D01*
X247412380Y-130790752D02*
X247412380Y-131314561D01*
X247412380Y-131314561D02*
X247364761Y-131409800D01*
X247364761Y-131409800D02*
X247269523Y-131457419D01*
X247269523Y-131457419D02*
X247126666Y-131457419D01*
X247126666Y-131457419D02*
X247031428Y-131409800D01*
X247031428Y-131409800D02*
X246983809Y-131362180D01*
X246507618Y-131457419D02*
X246507618Y-130790752D01*
X246507618Y-130981228D02*
X246459999Y-130885990D01*
X246459999Y-130885990D02*
X246412380Y-130838371D01*
X246412380Y-130838371D02*
X246317142Y-130790752D01*
X246317142Y-130790752D02*
X246221904Y-130790752D01*
X245983808Y-130457419D02*
X245364761Y-130457419D01*
X245364761Y-130457419D02*
X245698094Y-130838371D01*
X245698094Y-130838371D02*
X245555237Y-130838371D01*
X245555237Y-130838371D02*
X245459999Y-130885990D01*
X245459999Y-130885990D02*
X245412380Y-130933609D01*
X245412380Y-130933609D02*
X245364761Y-131028847D01*
X245364761Y-131028847D02*
X245364761Y-131266942D01*
X245364761Y-131266942D02*
X245412380Y-131362180D01*
X245412380Y-131362180D02*
X245459999Y-131409800D01*
X245459999Y-131409800D02*
X245555237Y-131457419D01*
X245555237Y-131457419D02*
X245840951Y-131457419D01*
X245840951Y-131457419D02*
X245936189Y-131409800D01*
X245936189Y-131409800D02*
X245983808Y-131362180D01*
X352555238Y-131171704D02*
X352079048Y-131171704D01*
X352650476Y-131457419D02*
X352317143Y-130457419D01*
X352317143Y-130457419D02*
X351983810Y-131457419D01*
X351793333Y-130790752D02*
X351412381Y-130790752D01*
X351650476Y-131457419D02*
X351650476Y-130600276D01*
X351650476Y-130600276D02*
X351602857Y-130505038D01*
X351602857Y-130505038D02*
X351507619Y-130457419D01*
X351507619Y-130457419D02*
X351412381Y-130457419D01*
X351221904Y-130790752D02*
X350840952Y-130790752D01*
X351079047Y-131457419D02*
X351079047Y-130600276D01*
X351079047Y-130600276D02*
X351031428Y-130505038D01*
X351031428Y-130505038D02*
X350936190Y-130457419D01*
X350936190Y-130457419D02*
X350840952Y-130457419D01*
X350507618Y-131457419D02*
X350507618Y-130790752D01*
X350507618Y-130457419D02*
X350555237Y-130505038D01*
X350555237Y-130505038D02*
X350507618Y-130552657D01*
X350507618Y-130552657D02*
X350459999Y-130505038D01*
X350459999Y-130505038D02*
X350507618Y-130457419D01*
X350507618Y-130457419D02*
X350507618Y-130552657D01*
X349602857Y-131409800D02*
X349698095Y-131457419D01*
X349698095Y-131457419D02*
X349888571Y-131457419D01*
X349888571Y-131457419D02*
X349983809Y-131409800D01*
X349983809Y-131409800D02*
X350031428Y-131362180D01*
X350031428Y-131362180D02*
X350079047Y-131266942D01*
X350079047Y-131266942D02*
X350079047Y-130981228D01*
X350079047Y-130981228D02*
X350031428Y-130885990D01*
X350031428Y-130885990D02*
X349983809Y-130838371D01*
X349983809Y-130838371D02*
X349888571Y-130790752D01*
X349888571Y-130790752D02*
X349698095Y-130790752D01*
X349698095Y-130790752D02*
X349602857Y-130838371D01*
X349174285Y-131457419D02*
X349174285Y-130457419D01*
X348745714Y-131457419D02*
X348745714Y-130933609D01*
X348745714Y-130933609D02*
X348793333Y-130838371D01*
X348793333Y-130838371D02*
X348888571Y-130790752D01*
X348888571Y-130790752D02*
X349031428Y-130790752D01*
X349031428Y-130790752D02*
X349126666Y-130838371D01*
X349126666Y-130838371D02*
X349174285Y-130885990D01*
X347888571Y-131409800D02*
X347983809Y-131457419D01*
X347983809Y-131457419D02*
X348174285Y-131457419D01*
X348174285Y-131457419D02*
X348269523Y-131409800D01*
X348269523Y-131409800D02*
X348317142Y-131314561D01*
X348317142Y-131314561D02*
X348317142Y-130933609D01*
X348317142Y-130933609D02*
X348269523Y-130838371D01*
X348269523Y-130838371D02*
X348174285Y-130790752D01*
X348174285Y-130790752D02*
X347983809Y-130790752D01*
X347983809Y-130790752D02*
X347888571Y-130838371D01*
X347888571Y-130838371D02*
X347840952Y-130933609D01*
X347840952Y-130933609D02*
X347840952Y-131028847D01*
X347840952Y-131028847D02*
X348317142Y-131124085D01*
X346983809Y-130790752D02*
X346983809Y-131457419D01*
X347412380Y-130790752D02*
X347412380Y-131314561D01*
X347412380Y-131314561D02*
X347364761Y-131409800D01*
X347364761Y-131409800D02*
X347269523Y-131457419D01*
X347269523Y-131457419D02*
X347126666Y-131457419D01*
X347126666Y-131457419D02*
X347031428Y-131409800D01*
X347031428Y-131409800D02*
X346983809Y-131362180D01*
X346507618Y-131457419D02*
X346507618Y-130790752D01*
X346507618Y-130981228D02*
X346459999Y-130885990D01*
X346459999Y-130885990D02*
X346412380Y-130838371D01*
X346412380Y-130838371D02*
X346317142Y-130790752D01*
X346317142Y-130790752D02*
X346221904Y-130790752D01*
X345936189Y-130552657D02*
X345888570Y-130505038D01*
X345888570Y-130505038D02*
X345793332Y-130457419D01*
X345793332Y-130457419D02*
X345555237Y-130457419D01*
X345555237Y-130457419D02*
X345459999Y-130505038D01*
X345459999Y-130505038D02*
X345412380Y-130552657D01*
X345412380Y-130552657D02*
X345364761Y-130647895D01*
X345364761Y-130647895D02*
X345364761Y-130743133D01*
X345364761Y-130743133D02*
X345412380Y-130885990D01*
X345412380Y-130885990D02*
X345983808Y-131457419D01*
X345983808Y-131457419D02*
X345364761Y-131457419D01*
X157575238Y-131171704D02*
X157099048Y-131171704D01*
X157670476Y-131457419D02*
X157337143Y-130457419D01*
X157337143Y-130457419D02*
X157003810Y-131457419D01*
X156813333Y-130790752D02*
X156432381Y-130790752D01*
X156670476Y-131457419D02*
X156670476Y-130600276D01*
X156670476Y-130600276D02*
X156622857Y-130505038D01*
X156622857Y-130505038D02*
X156527619Y-130457419D01*
X156527619Y-130457419D02*
X156432381Y-130457419D01*
X156241904Y-130790752D02*
X155860952Y-130790752D01*
X156099047Y-131457419D02*
X156099047Y-130600276D01*
X156099047Y-130600276D02*
X156051428Y-130505038D01*
X156051428Y-130505038D02*
X155956190Y-130457419D01*
X155956190Y-130457419D02*
X155860952Y-130457419D01*
X155527618Y-131457419D02*
X155527618Y-130790752D01*
X155527618Y-130457419D02*
X155575237Y-130505038D01*
X155575237Y-130505038D02*
X155527618Y-130552657D01*
X155527618Y-130552657D02*
X155479999Y-130505038D01*
X155479999Y-130505038D02*
X155527618Y-130457419D01*
X155527618Y-130457419D02*
X155527618Y-130552657D01*
X154622857Y-131409800D02*
X154718095Y-131457419D01*
X154718095Y-131457419D02*
X154908571Y-131457419D01*
X154908571Y-131457419D02*
X155003809Y-131409800D01*
X155003809Y-131409800D02*
X155051428Y-131362180D01*
X155051428Y-131362180D02*
X155099047Y-131266942D01*
X155099047Y-131266942D02*
X155099047Y-130981228D01*
X155099047Y-130981228D02*
X155051428Y-130885990D01*
X155051428Y-130885990D02*
X155003809Y-130838371D01*
X155003809Y-130838371D02*
X154908571Y-130790752D01*
X154908571Y-130790752D02*
X154718095Y-130790752D01*
X154718095Y-130790752D02*
X154622857Y-130838371D01*
X154194285Y-131457419D02*
X154194285Y-130457419D01*
X153765714Y-131457419D02*
X153765714Y-130933609D01*
X153765714Y-130933609D02*
X153813333Y-130838371D01*
X153813333Y-130838371D02*
X153908571Y-130790752D01*
X153908571Y-130790752D02*
X154051428Y-130790752D01*
X154051428Y-130790752D02*
X154146666Y-130838371D01*
X154146666Y-130838371D02*
X154194285Y-130885990D01*
X152908571Y-131409800D02*
X153003809Y-131457419D01*
X153003809Y-131457419D02*
X153194285Y-131457419D01*
X153194285Y-131457419D02*
X153289523Y-131409800D01*
X153289523Y-131409800D02*
X153337142Y-131314561D01*
X153337142Y-131314561D02*
X153337142Y-130933609D01*
X153337142Y-130933609D02*
X153289523Y-130838371D01*
X153289523Y-130838371D02*
X153194285Y-130790752D01*
X153194285Y-130790752D02*
X153003809Y-130790752D01*
X153003809Y-130790752D02*
X152908571Y-130838371D01*
X152908571Y-130838371D02*
X152860952Y-130933609D01*
X152860952Y-130933609D02*
X152860952Y-131028847D01*
X152860952Y-131028847D02*
X153337142Y-131124085D01*
X152003809Y-130790752D02*
X152003809Y-131457419D01*
X152432380Y-130790752D02*
X152432380Y-131314561D01*
X152432380Y-131314561D02*
X152384761Y-131409800D01*
X152384761Y-131409800D02*
X152289523Y-131457419D01*
X152289523Y-131457419D02*
X152146666Y-131457419D01*
X152146666Y-131457419D02*
X152051428Y-131409800D01*
X152051428Y-131409800D02*
X152003809Y-131362180D01*
X151527618Y-131457419D02*
X151527618Y-130790752D01*
X151527618Y-130981228D02*
X151479999Y-130885990D01*
X151479999Y-130885990D02*
X151432380Y-130838371D01*
X151432380Y-130838371D02*
X151337142Y-130790752D01*
X151337142Y-130790752D02*
X151241904Y-130790752D01*
X150479999Y-130790752D02*
X150479999Y-131457419D01*
X150718094Y-130409800D02*
X150956189Y-131124085D01*
X150956189Y-131124085D02*
X150337142Y-131124085D01*
X447555238Y-131171704D02*
X447079048Y-131171704D01*
X447650476Y-131457419D02*
X447317143Y-130457419D01*
X447317143Y-130457419D02*
X446983810Y-131457419D01*
X446793333Y-130790752D02*
X446412381Y-130790752D01*
X446650476Y-131457419D02*
X446650476Y-130600276D01*
X446650476Y-130600276D02*
X446602857Y-130505038D01*
X446602857Y-130505038D02*
X446507619Y-130457419D01*
X446507619Y-130457419D02*
X446412381Y-130457419D01*
X446221904Y-130790752D02*
X445840952Y-130790752D01*
X446079047Y-131457419D02*
X446079047Y-130600276D01*
X446079047Y-130600276D02*
X446031428Y-130505038D01*
X446031428Y-130505038D02*
X445936190Y-130457419D01*
X445936190Y-130457419D02*
X445840952Y-130457419D01*
X445507618Y-131457419D02*
X445507618Y-130790752D01*
X445507618Y-130457419D02*
X445555237Y-130505038D01*
X445555237Y-130505038D02*
X445507618Y-130552657D01*
X445507618Y-130552657D02*
X445459999Y-130505038D01*
X445459999Y-130505038D02*
X445507618Y-130457419D01*
X445507618Y-130457419D02*
X445507618Y-130552657D01*
X444602857Y-131409800D02*
X444698095Y-131457419D01*
X444698095Y-131457419D02*
X444888571Y-131457419D01*
X444888571Y-131457419D02*
X444983809Y-131409800D01*
X444983809Y-131409800D02*
X445031428Y-131362180D01*
X445031428Y-131362180D02*
X445079047Y-131266942D01*
X445079047Y-131266942D02*
X445079047Y-130981228D01*
X445079047Y-130981228D02*
X445031428Y-130885990D01*
X445031428Y-130885990D02*
X444983809Y-130838371D01*
X444983809Y-130838371D02*
X444888571Y-130790752D01*
X444888571Y-130790752D02*
X444698095Y-130790752D01*
X444698095Y-130790752D02*
X444602857Y-130838371D01*
X444174285Y-131457419D02*
X444174285Y-130457419D01*
X443745714Y-131457419D02*
X443745714Y-130933609D01*
X443745714Y-130933609D02*
X443793333Y-130838371D01*
X443793333Y-130838371D02*
X443888571Y-130790752D01*
X443888571Y-130790752D02*
X444031428Y-130790752D01*
X444031428Y-130790752D02*
X444126666Y-130838371D01*
X444126666Y-130838371D02*
X444174285Y-130885990D01*
X442888571Y-131409800D02*
X442983809Y-131457419D01*
X442983809Y-131457419D02*
X443174285Y-131457419D01*
X443174285Y-131457419D02*
X443269523Y-131409800D01*
X443269523Y-131409800D02*
X443317142Y-131314561D01*
X443317142Y-131314561D02*
X443317142Y-130933609D01*
X443317142Y-130933609D02*
X443269523Y-130838371D01*
X443269523Y-130838371D02*
X443174285Y-130790752D01*
X443174285Y-130790752D02*
X442983809Y-130790752D01*
X442983809Y-130790752D02*
X442888571Y-130838371D01*
X442888571Y-130838371D02*
X442840952Y-130933609D01*
X442840952Y-130933609D02*
X442840952Y-131028847D01*
X442840952Y-131028847D02*
X443317142Y-131124085D01*
X441983809Y-130790752D02*
X441983809Y-131457419D01*
X442412380Y-130790752D02*
X442412380Y-131314561D01*
X442412380Y-131314561D02*
X442364761Y-131409800D01*
X442364761Y-131409800D02*
X442269523Y-131457419D01*
X442269523Y-131457419D02*
X442126666Y-131457419D01*
X442126666Y-131457419D02*
X442031428Y-131409800D01*
X442031428Y-131409800D02*
X441983809Y-131362180D01*
X441507618Y-131457419D02*
X441507618Y-130790752D01*
X441507618Y-130981228D02*
X441459999Y-130885990D01*
X441459999Y-130885990D02*
X441412380Y-130838371D01*
X441412380Y-130838371D02*
X441317142Y-130790752D01*
X441317142Y-130790752D02*
X441221904Y-130790752D01*
X440364761Y-131457419D02*
X440936189Y-131457419D01*
X440650475Y-131457419D02*
X440650475Y-130457419D01*
X440650475Y-130457419D02*
X440745713Y-130600276D01*
X440745713Y-130600276D02*
X440840951Y-130695514D01*
X440840951Y-130695514D02*
X440936189Y-130743133D01*
%TO.C,Afficheur3*%
X293960000Y-135500000D02*
X203960000Y-135500000D01*
X203960000Y-135500000D02*
X203960000Y-257500000D01*
X203960000Y-257500000D02*
X293960000Y-257500000D01*
X293960000Y-257500000D02*
X293960000Y-135500000D01*
%TO.C,Afficheur2*%
X393960000Y-135500000D02*
X303960000Y-135500000D01*
X303960000Y-135500000D02*
X303960000Y-257500000D01*
X303960000Y-257500000D02*
X393960000Y-257500000D01*
X393960000Y-257500000D02*
X393960000Y-135500000D01*
%TO.C,Afficheur4*%
X198980000Y-135500000D02*
X108980000Y-135500000D01*
X108980000Y-135500000D02*
X108980000Y-257500000D01*
X108980000Y-257500000D02*
X198980000Y-257500000D01*
X198980000Y-257500000D02*
X198980000Y-135500000D01*
%TO.C,Afficheur1*%
X488960000Y-135500000D02*
X398960000Y-135500000D01*
X398960000Y-135500000D02*
X398960000Y-257500000D01*
X398960000Y-257500000D02*
X488960000Y-257500000D01*
X488960000Y-257500000D02*
X488960000Y-135500000D01*
%TD*%
M02*
